<svg width="770" height="704" viewBox="0 0 770 704" fill="none" xmlns="http://www.w3.org/2000/svg">
<path d="M88.7387 525.867L60.8192 526.395L46.6806 526.602C41.9552 526.696 37.2109 526.677 32.4667 526.715H31.6383V525.867L31.5442 502.09V501.148H32.4855L60.6309 501.261C70.0065 501.28 79.4008 501.468 88.7764 501.563H89.3035V502.071C89.2659 506.1 89.1341 510.11 89.0588 514.082L88.7387 525.867ZM88.7387 525.867L88.4752 513.856C88.381 509.903 88.2681 505.968 88.2304 502.071L88.7387 502.579C79.3632 502.673 69.9688 502.88 60.5933 502.88L32.4479 502.993L33.3892 502.052L33.295 525.83L32.4479 524.983C37.098 525.02 41.7293 525.001 46.3794 525.096L60.3674 525.303L88.7387 525.867Z" fill="#EBEBEB"/>
<path d="M57.3552 555.858L29.4357 556.385L15.2971 556.592C10.5716 556.686 5.82738 556.668 1.08314 556.705H0.254785V555.858L0.160645 532.08V531.139H1.10196L29.2474 531.252C38.6229 531.271 48.0173 531.459 57.3928 531.553H57.92V532.061C57.8823 536.09 57.7505 540.1 57.6752 544.073L57.3552 555.858ZM57.3552 555.858L57.0916 543.847C56.9975 539.893 56.8845 535.959 56.8469 532.061L57.3552 532.57C47.9796 532.664 38.5853 532.871 29.2097 532.871L1.06431 532.984L2.00563 532.043L1.9115 555.82L1.06431 554.973C5.71443 555.011 10.3457 554.992 14.9958 555.067L28.9838 555.274L57.3552 555.858Z" fill="#EBEBEB"/>
<path d="M57.3553 41.22L29.4169 41.747L15.2783 41.954C10.5529 42.049 5.80861 42.03 1.06436 42.067H0.235997V41.22L0.123047 17.443V16.501H1.06436L29.2098 16.614C38.5854 16.633 47.9797 16.821 57.3553 16.915H57.8824V17.424C57.8448 21.453 57.713 25.463 57.6377 29.435L57.3553 41.22ZM57.3553 41.22L57.0917 29.209C56.9976 25.255 56.8846 21.321 56.847 17.424L57.3553 17.932C47.9797 18.026 38.5854 18.233 29.2098 18.233L1.06436 18.384L2.00568 17.443L1.89273 41.22L1.04554 40.373C5.69565 40.411 10.327 40.392 14.9771 40.467L28.9651 40.674L57.3553 41.22Z" fill="#EBEBEB"/>
<path d="M768.936 41.22L741.016 41.747L726.859 41.954C722.133 42.049 717.389 42.03 712.645 42.067H711.817V41.22L711.722 17.443V16.501H712.664L740.809 16.614C750.185 16.633 759.579 16.821 768.955 16.915H769.482V17.424C769.444 21.453 769.312 25.463 769.237 29.435L768.936 41.22ZM768.936 41.22L768.672 29.209C768.578 25.255 768.465 21.321 768.427 17.424L768.936 17.932C759.56 18.026 750.166 18.233 740.79 18.233L712.645 18.346L713.586 17.405L713.492 41.183L712.645 40.335C717.295 40.373 721.926 40.354 726.576 40.43L740.564 40.637L768.936 41.22Z" fill="#EBEBEB"/>
<path d="M737.552 71.2111L709.633 71.7381L695.494 71.9451C690.769 72.0391 686.024 72.0201 681.28 72.0391H680.452V71.1921L680.358 47.4141V46.4731H681.299L709.444 46.5861C718.82 46.5861 728.214 46.7931 737.59 46.8871H738.117V47.3951C738.079 51.4241 737.948 55.4341 737.872 59.4061L737.552 71.2111ZM737.552 71.2111L737.289 59.1991C737.194 55.2461 737.082 51.3111 737.044 47.4141L737.552 47.9221C728.177 48.0171 718.782 48.2241 709.407 48.2241L681.261 48.3371L682.203 47.3951L682.109 71.1731L681.261 70.3261C685.911 70.3631 690.543 70.3451 695.193 70.4391L709.181 70.6461L737.552 71.2111Z" fill="#EBEBEB"/>
<path d="M593.399 349.446L565.479 349.973L551.322 350.18C546.596 350.274 541.852 350.255 537.108 350.274H536.279V349.427L536.185 325.649V324.708H537.127L565.272 324.821C574.648 324.84 584.042 325.028 593.417 325.122H593.945V325.63C593.907 329.659 593.775 333.669 593.7 337.641L593.399 349.446ZM593.399 349.446L593.135 337.434C593.041 333.481 592.928 329.546 592.89 325.649L593.399 326.157C584.023 326.252 574.629 326.459 565.253 326.459L537.108 326.572L538.049 325.63L537.955 349.408L537.108 348.561C541.758 348.598 546.389 348.58 551.039 348.655L565.027 348.862L593.399 349.446Z" fill="#EBEBEB"/>
<path d="M561.996 379.436L534.077 379.963L519.938 380.17C515.213 380.264 510.468 380.246 505.724 380.283H504.896V379.436L504.802 355.658V354.717H505.743L533.888 354.83C543.264 354.849 552.658 355.037 562.034 355.131H562.561V355.64C562.523 359.668 562.391 363.678 562.316 367.651L561.996 379.436ZM561.996 379.436L561.733 367.425C561.638 363.471 561.525 359.537 561.488 355.64L561.996 356.148C552.621 356.242 543.226 356.449 533.851 356.449L505.705 356.562L506.647 355.621L506.552 379.398L505.705 378.551C510.355 378.589 514.987 378.57 519.637 378.664L533.625 378.871L561.996 379.436Z" fill="#EBEBEB"/>
<path d="M530.726 349.446L502.806 349.973L488.649 350.18C483.923 350.274 479.179 350.255 474.435 350.274H473.606V349.427L473.512 325.649V324.708H474.454L502.599 324.821C511.974 324.84 521.369 325.028 530.744 325.122H531.272V325.63C531.234 329.659 531.102 333.669 531.027 337.641L530.726 349.446ZM530.726 349.446L530.462 337.434C530.387 333.481 530.255 329.546 530.217 325.649L530.726 326.157C521.35 326.252 511.956 326.459 502.58 326.459L474.435 326.572L475.376 325.63L475.282 349.408L474.435 348.561C479.085 348.598 483.716 348.58 488.366 348.655L502.354 348.862L530.726 349.446Z" fill="#EBEBEB"/>
<path d="M768.936 555.858L741.016 556.385L726.859 556.592C722.133 556.686 717.389 556.668 712.645 556.705H711.817V555.858L711.722 532.08V531.139H712.664L740.809 531.252C750.185 531.271 759.579 531.459 768.955 531.553H769.482V532.061C769.444 536.09 769.312 540.1 769.237 544.073L768.936 555.858ZM768.936 555.858L768.672 543.847C768.578 539.893 768.465 535.959 768.427 532.061L768.936 532.57C759.56 532.664 750.166 532.871 740.79 532.871L712.645 532.984L713.586 532.043L713.492 555.82L712.645 554.973C717.295 555.011 721.926 554.992 726.576 555.067L740.564 555.274L768.936 555.858Z" fill="#EBEBEB"/>
<path d="M290.727 111.951L262.807 112.478L248.669 112.685C243.943 112.779 239.199 112.76 234.455 112.798H233.626V111.951L233.532 88.1729V87.2319H234.474L262.619 87.3449C271.995 87.3639 281.389 87.5519 290.765 87.6459H291.292V88.1539C291.254 92.1829 291.122 96.1929 291.047 100.166L290.727 111.951ZM290.727 111.951L290.463 99.9399C290.369 95.9859 290.256 92.0509 290.219 88.1539L290.727 88.6629C281.351 88.7569 271.957 88.9639 262.581 88.9639L234.436 89.0769L235.377 88.1359L235.283 111.913L234.436 111.066C239.086 111.104 243.717 111.085 248.368 111.179L262.356 111.386L290.727 111.951Z" fill="#EBEBEB"/>
<path d="M711.12 159.509L722.209 141.643L716.73 138.254C715.13 137.256 714.245 135.43 714.415 133.547C714.509 132.512 714.546 131.458 714.509 130.403C714.471 128.521 715.45 126.751 717.126 125.866L722.792 122.816L712.852 104.272L707.185 107.322C705.529 108.207 703.514 108.056 701.97 106.983C701.104 106.381 700.22 105.835 699.297 105.327C697.64 104.423 696.605 102.691 696.661 100.789L696.868 94.3509L675.858 93.6919L675.67 100.149C675.613 102.051 674.446 103.689 672.733 104.498C672.262 104.724 671.811 104.95 671.359 105.195C670.907 105.44 670.455 105.703 670.022 105.967C668.403 106.946 666.407 107.002 664.807 106.004L659.291 102.597L648.202 120.463L653.681 123.871C655.281 124.868 656.166 126.695 655.996 128.577C655.902 129.613 655.865 130.667 655.902 131.702C655.94 133.585 654.961 135.336 653.285 136.24L647.619 139.289L657.559 157.833L663.226 154.783C664.882 153.899 666.897 154.049 668.441 155.122C669.307 155.725 670.191 156.271 671.114 156.76C672.771 157.664 673.806 159.396 673.75 161.297L673.543 167.755L694.553 168.414L694.76 161.956C694.816 160.074 695.984 158.436 697.678 157.626C698.149 157.4 698.601 157.174 699.071 156.93C699.523 156.685 699.975 156.421 700.408 156.158C702.027 155.179 704.041 155.122 705.66 156.12L711.12 159.509ZM693.329 146.236C684.951 150.736 674.522 147.592 670.022 139.195C665.523 130.818 668.667 120.369 677.044 115.869C685.422 111.37 695.871 114.533 700.37 122.91C704.87 131.307 701.707 141.737 693.329 146.236Z" fill="#EBEBEB"/>
<path d="M105.494 361.968L116.583 344.101L111.104 340.713C109.504 339.715 108.619 337.889 108.789 336.006C108.883 334.971 108.921 333.916 108.883 332.862C108.845 330.979 109.824 329.21 111.5 328.325L117.167 325.275L107.226 306.731L101.56 309.781C99.903 310.666 97.888 310.515 96.345 309.442C95.4786 308.84 94.5938 308.294 93.6713 307.785C92.0145 306.882 90.9791 305.15 91.0356 303.248L91.2427 296.81L70.2324 296.151L70.0442 302.608C69.9877 304.51 68.8204 306.147 67.1072 306.957C66.6366 307.183 66.1848 307.409 65.7329 307.654C65.2811 307.898 64.8293 308.162 64.3962 308.425C62.7772 309.404 60.7816 309.461 59.1813 308.463L53.6652 305.056L42.5765 322.922L48.055 326.329C49.6552 327.327 50.54 329.153 50.3706 331.036C50.2765 332.071 50.2388 333.126 50.2765 334.161C50.3141 336.044 49.3351 337.795 47.6596 338.698L41.9929 341.748L51.9332 360.292L57.5999 357.242C59.2566 356.357 61.2711 356.508 62.8148 357.581C63.6808 358.184 64.5657 358.73 65.4882 359.219C67.1449 360.123 68.1803 361.855 68.1239 363.756L67.9168 370.214L88.927 370.873L89.1341 364.415C89.1906 362.532 90.3578 360.895 92.0522 360.085C92.5229 359.859 92.9747 359.633 93.4453 359.388C93.8972 359.144 94.349 358.88 94.782 358.617C96.401 357.638 98.416 357.581 100.035 358.579L105.494 361.968ZM87.6845 348.695C79.3067 353.195 68.8769 350.051 64.3774 341.654C59.8779 333.276 63.0219 322.828 71.3997 318.328C79.7774 313.829 90.226 316.991 94.7255 325.369C99.244 333.766 96.081 344.196 87.6845 348.695Z" fill="#EBEBEB"/>
<path d="M320.736 19.7421L313.375 6.97811L309.478 9.23711C308.33 9.89611 306.918 9.83912 305.807 9.10512C305.186 8.71012 304.564 8.33312 303.905 7.99412C302.719 7.39212 301.966 6.20611 301.966 4.88811V0.370117H287.225V4.88811C287.225 6.20611 286.472 7.39212 285.286 7.99412C284.627 8.33312 283.987 8.69112 283.385 9.10512C282.274 9.82012 280.862 9.89611 279.714 9.23711L275.816 6.97811L268.455 19.7421L272.371 22.0011C273.52 22.6601 274.16 23.9211 274.084 25.2581C274.066 25.6161 274.066 25.9731 274.066 26.3501C274.066 26.7081 274.066 27.0651 274.084 27.4421C274.16 28.7601 273.52 30.0211 272.371 30.6801L268.437 32.9581L275.798 45.7221L279.714 43.4631C280.862 42.8041 282.274 42.8611 283.385 43.5951C283.987 43.9901 284.627 44.3671 285.286 44.6871C286.472 45.2891 287.225 46.4751 287.225 47.7931V52.3111H301.966V47.7931C301.966 46.4751 302.719 45.2891 303.905 44.6871C304.564 44.3481 305.186 43.9901 305.807 43.5951C306.918 42.8611 308.33 42.8041 309.478 43.4631L313.394 45.7221L320.755 32.9581L316.839 30.6991C315.691 30.0401 315.069 28.7791 315.126 27.4611C315.145 27.1031 315.145 26.7261 315.145 26.3691C315.145 26.0111 315.145 25.6531 315.126 25.2771C315.051 23.9591 315.691 22.6981 316.839 22.0201L320.736 19.7421ZM306.654 26.3501C306.654 33.0141 301.251 38.4181 294.586 38.4181C287.922 38.4181 282.519 33.0141 282.519 26.3501C282.519 19.6851 287.922 14.2821 294.586 14.2821C301.27 14.2631 306.654 19.6851 306.654 26.3501Z" fill="#EBEBEB"/>
<path d="M385.009 703.873C539.995 703.873 665.635 686.105 665.635 664.187C665.635 642.269 539.995 624.501 385.009 624.501C230.024 624.501 104.383 642.269 104.383 664.187C104.383 686.105 230.024 703.873 385.009 703.873Z" fill="#EBEBEB"/>
<path d="M423.773 409.655H356.92V415.134H423.773V409.655Z" fill="#37474F"/>
<path d="M423.773 416.79H356.92V422.269H423.773V416.79Z" fill="#37474F"/>
<path d="M423.773 423.926H356.92V429.404H423.773V423.926Z" fill="#37474F"/>
<path d="M423.773 431.061H356.92V436.539H423.773V431.061Z" fill="#37474F"/>
<path d="M423.773 438.196H356.92V443.674H423.773V438.196Z" fill="#37474F"/>
<path d="M452.728 580.504H325.612V585.983H452.728V580.504Z" fill="#37474F"/>
<path d="M452.728 587.64H325.612V593.118H452.728V587.64Z" fill="#37474F"/>
<path d="M452.728 594.775H325.612V600.253H452.728V594.775Z" fill="#37474F"/>
<path d="M452.728 601.91H325.612V607.389H452.728V601.91Z" fill="#37474F"/>
<path d="M452.728 609.045H325.612V614.524H452.728V609.045Z" fill="#37474F"/>
<path d="M269.848 364.378C269.905 363.643 242.023 354.306 242.023 354.306L243.661 258.498L280.636 250.572L269.848 364.378Z" fill="#D62829"/>
<path opacity="0.2" d="M269.848 364.378C269.905 363.643 242.023 354.306 242.023 354.306L243.661 258.498L280.636 250.572L269.848 364.378Z" fill="black"/>
<path d="M525.247 401.993C525.435 401.277 554.842 402.106 554.842 402.106L586.263 311.588L554.277 291.425L525.247 401.993Z" fill="#D62829"/>
<path opacity="0.2" d="M525.247 401.993C525.435 401.277 554.842 402.106 554.842 402.106L586.263 311.588L554.277 291.425L525.247 401.993Z" fill="black"/>
<path d="M264.483 399.658C264.483 399.658 274.819 244.717 283.893 193.754C283.893 193.754 471.065 207.912 572.106 246.524C572.106 246.524 520.013 427.502 517.321 436.483C517.302 436.483 385.499 410.521 264.483 399.658Z" fill="#D62829"/>
<path opacity="0.1" d="M431.548 214.444C428.498 233.101 425.43 251.758 422.248 270.378L412.609 326.254L412.082 325.463L474.792 340.355L506.119 347.942L537.409 355.68L505.95 348.639L474.529 341.447L411.762 326.781L411.122 326.631L411.235 325.991L421.231 270.17C424.582 251.608 428.047 233.026 431.548 214.444Z" fill="black"/>
<path opacity="0.1" d="M424.658 225.081C424.695 226.794 423.321 228.545 421.363 228.715C420.422 228.809 419.386 228.508 418.614 227.83C417.843 227.152 417.372 226.117 417.372 225.081C417.372 224.027 417.843 222.992 418.614 222.333C419.386 221.655 420.422 221.354 421.363 221.448C423.34 221.617 424.695 223.368 424.658 225.081ZM424.658 225.081C424.658 224.215 424.262 223.368 423.622 222.822C422.982 222.276 422.135 222.05 421.363 222.144C419.782 222.333 418.765 223.745 418.784 225.081C418.765 226.418 419.782 227.83 421.363 228.018C422.135 228.112 422.982 227.886 423.622 227.34C424.281 226.794 424.658 225.947 424.658 225.081Z" fill="black"/>
<path opacity="0.1" d="M421.382 248.125C421.42 249.838 420.045 251.589 418.087 251.758C417.146 251.852 416.111 251.551 415.339 250.873C414.567 250.196 414.096 249.16 414.096 248.125C414.096 247.07 414.567 246.035 415.339 245.376C416.111 244.698 417.146 244.397 418.087 244.491C420.045 244.661 421.42 246.43 421.382 248.125ZM421.382 248.125C421.382 247.259 420.987 246.411 420.347 245.866C419.706 245.32 418.859 245.094 418.087 245.188C416.506 245.376 415.489 246.788 415.508 248.125C415.489 249.461 416.506 250.873 418.087 251.062C418.859 251.156 419.706 250.93 420.347 250.384C420.987 249.838 421.363 248.991 421.382 248.125Z" fill="black"/>
<path opacity="0.1" d="M417.334 272.486C417.372 274.199 415.998 275.95 414.04 276.12C413.098 276.214 412.063 275.912 411.291 275.235C410.519 274.557 410.048 273.521 410.048 272.486C410.048 271.451 410.519 270.396 411.291 269.737C412.063 269.06 413.098 268.758 414.04 268.853C415.998 269.022 417.372 270.792 417.334 272.486ZM417.334 272.486C417.334 271.62 416.939 270.773 416.299 270.227C415.659 269.681 414.812 269.455 414.04 269.549C412.458 269.737 411.442 271.149 411.46 272.486C411.442 273.823 412.458 275.235 414.04 275.423C414.812 275.517 415.659 275.291 416.299 274.745C416.939 274.199 417.315 273.352 417.334 272.486Z" fill="black"/>
<path opacity="0.1" d="M413.287 296.847C413.324 298.561 411.95 300.311 409.992 300.481C409.051 300.575 408.015 300.274 407.243 299.596C406.471 298.918 406.001 297.883 406.001 296.847C406.001 295.812 406.471 294.758 407.243 294.099C408.015 293.421 409.051 293.12 409.992 293.214C411.95 293.383 413.324 295.134 413.287 296.847ZM413.287 296.847C413.287 295.981 412.891 295.134 412.251 294.588C411.611 294.042 410.764 293.816 409.992 293.91C408.41 294.099 407.394 295.511 407.413 296.847C407.394 298.184 408.41 299.596 409.992 299.784C410.764 299.878 411.611 299.652 412.251 299.107C412.891 298.561 413.268 297.713 413.287 296.847Z" fill="black"/>
<path opacity="0.1" d="M427.068 335.705C427.105 337.418 425.731 339.169 423.773 339.339C422.832 339.433 421.796 339.131 421.024 338.454C420.252 337.776 419.782 336.74 419.782 335.705C419.782 334.651 420.252 333.615 421.024 332.956C421.796 332.279 422.832 331.977 423.773 332.072C425.75 332.222 427.105 333.992 427.068 335.705ZM427.068 335.705C427.068 334.839 426.672 333.992 426.032 333.446C425.392 332.9 424.545 332.674 423.773 332.768C422.192 332.956 421.175 334.368 421.194 335.705C421.175 337.042 422.192 338.454 423.773 338.642C424.545 338.736 425.392 338.51 426.032 337.964C426.691 337.399 427.068 336.552 427.068 335.705Z" fill="black"/>
<path opacity="0.1" d="M450.073 341.315C450.111 343.029 448.737 344.779 446.779 344.949C445.837 345.043 444.802 344.742 444.03 344.064C443.258 343.386 442.788 342.351 442.788 341.315C442.788 340.261 443.258 339.226 444.03 338.567C444.802 337.889 445.837 337.588 446.779 337.682C448.737 337.832 450.092 339.602 450.073 341.315ZM450.073 341.315C450.073 340.449 449.678 339.602 449.038 339.056C448.398 338.51 447.551 338.284 446.779 338.378C445.197 338.567 444.181 339.979 444.2 341.315C444.181 342.652 445.197 344.064 446.779 344.252C447.551 344.346 448.398 344.12 449.038 343.575C449.678 343.01 450.055 342.163 450.073 341.315Z" fill="black"/>
<path opacity="0.1" d="M473.06 346.925C473.098 348.639 471.724 350.39 469.766 350.559C468.824 350.653 467.789 350.352 467.017 349.674C466.245 348.996 465.775 347.961 465.775 346.925C465.775 345.871 466.245 344.836 467.017 344.177C467.789 343.499 468.824 343.198 469.766 343.292C471.724 343.443 473.098 345.212 473.06 346.925ZM473.06 346.925C473.06 346.059 472.665 345.212 472.025 344.666C471.385 344.12 470.538 343.894 469.766 343.989C468.184 344.177 467.168 345.589 467.187 346.925C467.168 348.262 468.184 349.674 469.766 349.862C470.538 349.957 471.385 349.731 472.025 349.185C472.665 348.62 473.06 347.773 473.06 346.925Z" fill="black"/>
<path opacity="0.1" d="M496.047 352.517C496.085 354.23 494.711 355.981 492.753 356.151C491.811 356.245 490.776 355.943 490.004 355.266C489.232 354.588 488.761 353.552 488.761 352.517C488.761 351.463 489.232 350.427 490.004 349.768C490.776 349.091 491.811 348.789 492.753 348.884C494.729 349.053 496.085 350.823 496.047 352.517ZM496.047 352.517C496.047 351.651 495.652 350.804 495.012 350.258C494.372 349.712 493.525 349.486 492.753 349.58C491.171 349.768 490.155 351.18 490.173 352.517C490.155 353.854 491.171 355.266 492.753 355.454C493.525 355.548 494.372 355.322 495.012 354.776C495.671 354.23 496.047 353.383 496.047 352.517Z" fill="black"/>
<path opacity="0.1" d="M519.034 358.391C518.94 360.104 517.434 361.742 515.476 361.761C514.516 361.78 513.518 361.403 512.803 360.669C512.087 359.935 511.711 358.88 511.786 357.826C511.88 356.791 512.407 355.793 513.236 355.172C514.064 354.55 515.118 354.343 516.06 354.494C517.98 354.833 519.204 356.678 519.034 358.391ZM519.034 358.391C519.091 357.525 518.771 356.659 518.187 356.056C517.585 355.473 516.756 355.172 515.985 355.209C514.403 355.266 513.273 356.602 513.179 357.939C513.048 359.257 513.97 360.763 515.533 361.064C516.286 361.215 517.152 361.045 517.829 360.556C518.526 360.066 518.959 359.238 519.034 358.391Z" fill="black"/>
<path opacity="0.1" d="M409.239 321.209C409.277 322.922 407.902 324.673 405.944 324.842C405.003 324.936 403.968 324.635 403.196 323.957C402.424 323.28 401.953 322.244 401.953 321.209C401.953 320.173 402.424 319.119 403.196 318.46C403.968 317.782 405.003 317.481 405.944 317.575C407.902 317.745 409.277 319.495 409.239 321.209ZM409.239 321.209C409.239 320.343 408.844 319.495 408.203 318.95C407.563 318.404 406.716 318.178 405.944 318.272C404.363 318.46 403.346 319.872 403.365 321.209C403.346 322.545 404.363 323.957 405.944 324.146C406.716 324.24 407.563 324.014 408.203 323.468C408.844 322.922 409.22 322.075 409.239 321.209Z" fill="black"/>
<path opacity="0.2" d="M370.506 361.562C392.332 341.938 394.117 308.335 374.492 286.508C354.867 264.682 321.264 262.898 299.438 282.522C277.612 302.147 275.827 335.75 295.452 357.576C315.077 379.403 348.68 381.187 370.506 361.562Z" fill="black"/>
<path d="M374.818 337.136C383.151 315.121 372.06 290.519 350.045 282.186C328.031 273.853 303.429 284.944 295.096 306.959C286.763 328.973 297.854 353.575 319.868 361.908C341.883 370.241 366.485 359.15 374.818 337.136Z" fill="#263238"/>
<path d="M332.397 306.377L322.437 304.764L320.823 314.725L330.784 316.338L332.397 306.377Z" fill="#D62829"/>
<path d="M324.057 294.802L314.096 293.188L312.483 303.149L322.443 304.762L324.057 294.802Z" fill="#D62829"/>
<path d="M363.911 301.257L353.951 299.644L352.337 309.605L362.298 311.218L363.911 301.257Z" fill="#D62829"/>
<path d="M317.639 334.43L307.678 332.817L306.065 342.777L316.025 344.391L317.639 334.43Z" fill="#D62829"/>
<path d="M357.493 340.886L347.533 339.273L345.919 349.233L355.88 350.847L357.493 340.886Z" fill="#D62829"/>
<path d="M329.215 326.09L319.254 324.476L317.641 334.437L327.601 336.051L329.215 326.09Z" fill="#D62829"/>
<path d="M340.775 317.844L330.814 316.23L329.201 326.191L339.162 327.805L340.775 317.844Z" fill="#D62829"/>
<path d="M352.332 309.616L342.372 308.003L340.758 317.964L350.719 319.577L352.332 309.616Z" fill="#D62829"/>
<path d="M349.143 329.302L339.183 327.688L337.569 337.649L347.53 339.263L349.143 329.302Z" fill="#D62829"/>
<path d="M518.729 377.986C537.333 355.282 534.008 321.796 511.304 303.193C488.601 284.589 455.114 287.914 436.511 310.617C417.907 333.321 421.232 366.808 443.936 385.411C466.639 404.014 500.126 400.69 518.729 377.986Z" fill="#D62829"/>
<path opacity="0.2" d="M518.729 377.986C537.333 355.282 534.008 321.796 511.304 303.193C488.601 284.589 455.114 287.914 436.511 310.617C417.907 333.321 421.232 366.808 443.936 385.411C466.639 404.014 500.126 400.69 518.729 377.986Z" fill="black"/>
<path opacity="0.2" d="M529.332 356.621C529.088 357.676 528.805 358.673 528.504 359.69L424.902 337.588C425.147 335.743 425.486 333.898 425.919 332.015C432.697 303.456 461.35 285.815 489.929 292.593C518.451 299.389 536.11 328.043 529.332 356.621Z" fill="black"/>
<path d="M494.042 383.66C515.763 374.586 526.014 349.622 516.94 327.901C507.865 306.181 482.901 295.929 461.18 305.004C439.46 314.079 429.209 339.043 438.283 360.763C447.358 382.484 472.322 392.735 494.042 383.66Z" fill="#263238"/>
<path d="M488.342 321.033L478.524 318.7L466.907 367.586L476.724 369.919L488.342 321.033Z" fill="#D62829"/>
<path d="M532.401 355.623L423.585 329.756C430.72 299.709 460.88 281.146 490.927 288.281C520.973 295.435 539.555 325.576 532.401 355.623Z" fill="#D62829"/>
<path opacity="0.2" d="M532.401 355.623L423.585 329.756C430.72 299.709 460.88 281.146 490.927 288.281C520.973 295.435 539.555 325.576 532.401 355.623Z" fill="black"/>
<path opacity="0.1" d="M385.141 375.918C385.424 371.663 386.986 367.352 390.055 363.944C391.58 362.231 393.594 360.876 395.835 360.066C398.075 359.238 400.503 359.087 402.8 359.294C405.135 359.577 407.526 360.386 409.484 361.874C411.404 363.38 412.854 365.338 413.72 367.465C415.489 371.682 415.696 376.182 414.83 380.361C414.115 376.182 413.042 372.134 411.084 368.802C409.145 365.451 406.057 363.361 402.405 363.041C398.658 362.57 395.025 363.587 392.088 366.053C389.132 368.519 386.892 372.059 385.141 375.918Z" fill="black"/>
<path d="M279.036 267.516C279.469 261.83 280.109 256.182 280.655 250.516C281.257 244.868 281.879 239.201 282.575 233.572C283.234 227.924 283.968 222.295 284.684 216.647C285.399 210.999 286.209 205.389 286.962 199.741L287.169 198.235L288.694 198.329C300.95 199.101 313.187 200.099 325.405 201.341C331.524 201.962 337.623 202.678 343.704 203.469C349.785 204.335 355.885 205.144 361.928 206.255L325.179 203.977L288.468 201.605L290.2 200.193C289.371 205.822 288.6 211.451 287.715 217.061C286.849 222.671 285.983 228.301 285.06 233.911C284.157 239.521 283.196 245.131 282.199 250.723C281.144 256.314 280.184 261.924 279.036 267.516Z" fill="white"/>
<path d="M287.884 310.459C289.127 303.625 292.214 297.13 296.394 291.463C297.429 290.032 298.615 288.714 299.745 287.359C300.968 286.097 302.249 284.855 303.51 283.612C304.884 282.502 306.278 281.391 307.69 280.318C309.196 279.358 310.664 278.379 312.189 277.456C313.789 276.684 315.389 275.894 317.009 275.159L322.054 273.408L327.288 272.335C329.039 272.072 330.827 272.015 332.578 271.884C339.657 271.695 346.641 273.22 353.042 275.799C346.227 274.519 339.431 273.823 332.747 274.463C326.064 275.084 319.588 277.08 313.789 280.355C307.934 283.537 302.776 287.942 298.389 293.063C294.04 298.203 290.426 304.02 287.884 310.459Z" fill="white"/>
<path d="M434.485 324.823C436.65 318.234 440.622 312.21 445.536 307.183C446.76 305.922 448.115 304.773 449.414 303.587C450.808 302.495 452.238 301.46 453.669 300.406C455.194 299.483 456.719 298.579 458.263 297.713C459.882 296.979 461.482 296.207 463.12 295.511C464.814 294.965 466.509 294.4 468.222 293.892L473.456 292.856L478.784 292.517C480.553 292.498 482.323 292.706 484.093 292.819C491.134 293.609 497.836 296.076 503.823 299.521C497.252 297.318 490.625 295.68 483.904 295.379C477.202 295.078 470.5 296.151 464.306 298.598C458.075 300.952 452.333 304.604 447.306 309.047C442.279 313.528 437.912 318.799 434.485 324.823Z" fill="white"/>
<path d="M270.432 495.146C256.821 495.146 227.018 492.077 207.834 467.414C183.304 435.861 192.171 375.335 192.547 372.755L203.203 374.374C203.109 374.958 194.656 432.906 216.344 460.787C237.542 488.048 276.005 484.132 276.4 484.095L277.605 494.807C277.172 494.863 274.536 495.146 270.432 495.146Z" fill="#D62829"/>
<path opacity="0.4" d="M270.432 495.146C256.821 495.146 227.018 492.077 207.834 467.414C183.304 435.861 192.171 375.335 192.547 372.755L203.203 374.374C203.109 374.958 194.656 432.906 216.344 460.787C237.542 488.048 276.005 484.132 276.4 484.095L277.605 494.807C277.172 494.863 274.536 495.146 270.432 495.146Z" fill="white"/>
<path d="M206.328 381.717C204.389 381.717 202.394 381.547 200.379 381.227C182.4 378.309 174.455 367.559 170.935 359.05C167.414 350.521 166.605 340.205 168.525 328.382L191.324 332.072C190.138 339.395 190.476 345.834 192.303 350.239C193.602 353.364 196.106 357.129 204.088 358.428C207.74 359.012 211.675 358.711 215.817 352.479C218.998 347.679 220.919 341.127 221.596 336.985L244.395 340.675C243.868 343.932 241.628 355.341 235.076 365.244C227.903 376.012 217.869 381.717 206.328 381.717Z" fill="#D62829"/>
<path d="M292.948 525.983C292.911 525.494 273.633 522.406 273.633 522.406L264.276 459.507L287.621 450.282L292.948 525.983Z" fill="#D62829"/>
<path opacity="0.2" d="M292.948 525.983C292.911 525.494 273.633 522.406 273.633 522.406L264.276 459.507L287.621 450.282L292.948 525.983Z" fill="black"/>
<path d="M483.453 526.096C483.509 525.607 502.844 522.952 502.844 522.952L513.594 460.279L490.456 450.546L483.453 526.096Z" fill="#D62829"/>
<path opacity="0.2" d="M483.453 526.096C483.509 525.607 502.844 522.952 502.844 522.952L513.594 460.279L490.456 450.546L483.453 526.096Z" fill="black"/>
<path d="M284.928 436.219C284.928 436.219 440.792 429.554 493.431 438.328C493.431 438.328 477.974 589.146 477.127 592.064C477.127 592.064 322.092 591.65 297.862 592.064C297.862 592.064 284.721 491.776 284.928 436.219Z" fill="#D62829"/>
<path opacity="0.2" d="M332.258 477.543C332.258 477.543 417.334 474.192 446.082 478.616C446.082 478.616 437.648 554.656 437.177 556.143C437.177 556.143 352.534 555.936 339.318 556.143C339.318 556.124 333.519 504.088 332.258 477.543Z" fill="black"/>
<path opacity="0.2" d="M343.893 556.105C341.954 556.105 340.391 556.124 339.318 556.143C339.318 556.143 333.519 504.088 332.258 477.543C332.258 477.543 334.197 477.468 337.567 477.355L343.893 556.105Z" fill="black"/>
<path d="M368.988 496.313C364.225 494.807 359.142 497.461 357.636 502.224C356.13 507.006 358.784 512.071 363.547 513.577C368.31 515.083 373.394 512.428 374.881 507.665C376.406 502.902 373.751 497.819 368.988 496.313ZM373.845 507.326C372.528 511.525 368.066 513.84 363.886 512.522C359.707 511.205 357.372 506.743 358.69 502.544C360.008 498.365 364.47 496.03 368.668 497.348C372.848 498.685 375.163 503.147 373.845 507.326ZM368.988 496.313C364.225 494.807 359.142 497.461 357.636 502.224C356.13 507.006 358.784 512.071 363.547 513.577C368.31 515.083 373.394 512.428 374.881 507.665C376.406 502.902 373.751 497.819 368.988 496.313ZM373.845 507.326C372.528 511.525 368.066 513.84 363.886 512.522C359.707 511.205 357.372 506.743 358.69 502.544C360.008 498.365 364.47 496.03 368.668 497.348C372.848 498.685 375.163 503.147 373.845 507.326ZM368.988 496.313C364.225 494.807 359.142 497.461 357.636 502.224C356.13 507.006 358.784 512.071 363.547 513.577C368.31 515.083 373.394 512.428 374.881 507.665C376.406 502.902 373.751 497.819 368.988 496.313ZM373.845 507.326C372.528 511.525 368.066 513.84 363.886 512.522C359.707 511.205 357.372 506.743 358.69 502.544C360.008 498.365 364.47 496.03 368.668 497.348C372.848 498.685 375.163 503.147 373.845 507.326ZM372 486.749C361.947 483.586 351.235 489.178 348.072 499.212C344.909 509.265 350.482 519.978 360.535 523.14C370.57 526.303 381.301 520.731 384.463 510.677C387.626 500.624 382.054 489.912 372 486.749ZM376.236 508.079C374.504 513.577 368.631 516.645 363.114 514.913C357.617 513.181 354.548 507.307 356.28 501.791C358.012 496.294 363.905 493.225 369.402 494.957C374.9 496.708 377.968 502.582 376.236 508.079ZM374.9 507.665C376.406 502.902 373.751 497.819 368.988 496.313C364.225 494.807 359.142 497.461 357.636 502.224C356.13 507.006 358.784 512.071 363.547 513.577C368.31 515.083 373.394 512.428 374.9 507.665ZM373.845 507.326C372.528 511.525 368.066 513.84 363.886 512.522C359.707 511.205 357.372 506.743 358.69 502.544C360.008 498.365 364.47 496.03 368.668 497.348C372.848 498.685 375.163 503.147 373.845 507.326ZM368.988 496.313C364.225 494.807 359.142 497.461 357.636 502.224C356.13 507.006 358.784 512.071 363.547 513.577C368.31 515.083 373.394 512.428 374.881 507.665C376.406 502.902 373.751 497.819 368.988 496.313ZM373.845 507.326C372.528 511.525 368.066 513.84 363.886 512.522C359.707 511.205 357.372 506.743 358.69 502.544C360.008 498.365 364.47 496.03 368.668 497.348C372.848 498.685 375.163 503.147 373.845 507.326ZM368.988 496.313C364.225 494.807 359.142 497.461 357.636 502.224C356.13 507.006 358.784 512.071 363.547 513.577C368.31 515.083 373.394 512.428 374.881 507.665C376.406 502.902 373.751 497.819 368.988 496.313ZM373.845 507.326C372.528 511.525 368.066 513.84 363.886 512.522C359.707 511.205 357.372 506.743 358.69 502.544C360.008 498.365 364.47 496.03 368.668 497.348C372.848 498.685 375.163 503.147 373.845 507.326Z" fill="#D62829"/>
<path d="M364.263 523.479L357.278 521.277L356.111 526.341L362.324 528.318L364.263 523.479Z" fill="#D62829"/>
<path d="M351.706 516.928L348.317 510.433L343.893 513.181L346.905 518.961L351.706 516.928Z" fill="#D62829"/>
<path d="M347.451 503.41L349.654 496.407L344.57 495.24L342.612 501.452L347.451 503.41Z" fill="#D62829"/>
<path d="M354.002 490.834L360.497 487.446L357.749 483.021L351.95 486.053L354.002 490.834Z" fill="#D62829"/>
<path d="M367.52 486.58L374.504 488.782L375.69 483.718L369.459 481.741L367.52 486.58Z" fill="#D62829"/>
<path d="M380.096 493.131L383.484 499.645L387.89 496.878L384.878 491.098L380.096 493.131Z" fill="#D62829"/>
<path d="M384.351 506.648L382.148 513.652L387.212 514.819L389.17 508.606L384.351 506.648Z" fill="#D62829"/>
<path d="M377.799 519.225L371.285 522.613L374.053 527.038L379.832 524.025L377.799 519.225Z" fill="#D62829"/>
<path d="M399.75 522.933C396.926 521.088 393.161 521.898 391.316 524.722C389.471 527.546 390.281 531.311 393.105 533.156C395.929 535.001 399.694 534.192 401.539 531.368C403.365 528.544 402.574 524.759 399.75 522.933ZM400.918 530.953C399.299 533.438 395.985 534.135 393.519 532.516C391.034 530.897 390.337 527.583 391.956 525.117C393.575 522.632 396.889 521.936 399.355 523.555C401.821 525.174 402.518 528.468 400.918 530.953ZM399.75 522.933C396.926 521.088 393.161 521.898 391.316 524.722C389.471 527.546 390.281 531.311 393.105 533.156C395.929 535.001 399.694 534.192 401.539 531.368C403.365 528.544 402.574 524.759 399.75 522.933ZM400.918 530.953C399.299 533.438 395.985 534.135 393.519 532.516C391.034 530.897 390.337 527.583 391.956 525.117C393.575 522.632 396.889 521.936 399.355 523.555C401.821 525.174 402.518 528.468 400.918 530.953ZM399.75 522.933C396.926 521.088 393.161 521.898 391.316 524.722C389.471 527.546 390.281 531.311 393.105 533.156C395.929 535.001 399.694 534.192 401.539 531.368C403.365 528.544 402.574 524.759 399.75 522.933ZM400.918 530.953C399.299 533.438 395.985 534.135 393.519 532.516C391.034 530.897 390.337 527.583 391.956 525.117C393.575 522.632 396.889 521.936 399.355 523.555C401.821 525.174 402.518 528.468 400.918 530.953ZM403.44 517.267C397.491 513.388 389.547 515.083 385.668 521.013C381.809 526.962 383.484 534.907 389.415 538.785C395.345 542.645 403.309 540.969 407.187 535.02C411.046 529.108 409.371 521.145 403.44 517.267ZM402.33 531.876C400.202 535.133 395.835 536.055 392.596 533.947C389.339 531.838 388.417 527.452 390.544 524.214C392.672 520.957 397.039 520.034 400.278 522.161C403.516 524.251 404.438 528.619 402.33 531.876ZM401.539 531.368C403.384 528.544 402.574 524.778 399.769 522.933C396.945 521.088 393.18 521.898 391.335 524.722C389.49 527.546 390.3 531.311 393.124 533.156C395.929 534.982 399.694 534.173 401.539 531.368ZM400.918 530.953C399.299 533.438 395.985 534.135 393.519 532.516C391.034 530.897 390.337 527.583 391.956 525.117C393.575 522.632 396.889 521.936 399.355 523.555C401.821 525.174 402.518 528.468 400.918 530.953ZM399.75 522.933C396.926 521.088 393.161 521.898 391.316 524.722C389.471 527.546 390.281 531.311 393.105 533.156C395.929 535.001 399.694 534.192 401.539 531.368C403.365 528.544 402.574 524.759 399.75 522.933ZM400.918 530.953C399.299 533.438 395.985 534.135 393.519 532.516C391.034 530.897 390.337 527.583 391.956 525.117C393.575 522.632 396.889 521.936 399.355 523.555C401.821 525.174 402.518 528.468 400.918 530.953ZM399.75 522.933C396.926 521.088 393.161 521.898 391.316 524.722C389.471 527.546 390.281 531.311 393.105 533.156C395.929 535.001 399.694 534.192 401.539 531.368C403.365 528.544 402.574 524.759 399.75 522.933ZM400.918 530.953C399.299 533.438 395.985 534.135 393.519 532.516C391.034 530.897 390.337 527.583 391.956 525.117C393.575 522.632 396.889 521.936 399.355 523.555C401.821 525.174 402.518 528.468 400.918 530.953Z" fill="#DBDBDB"/>
<path d="M391.787 539.689L387.645 536.997L385.969 540.084L389.641 542.475L391.787 539.689Z" fill="#DBDBDB"/>
<path d="M384.802 533.175L383.786 528.336L380.435 529.334L381.338 533.627L384.802 533.175Z" fill="#DBDBDB"/>
<path d="M384.501 523.63L387.193 519.488L384.106 517.812L381.715 521.502L384.501 523.63Z" fill="#DBDBDB"/>
<path d="M391.015 516.664L395.853 515.648L394.856 512.278L390.563 513.2L391.015 516.664Z" fill="#DBDBDB"/>
<path d="M400.56 516.344L404.702 519.055L406.377 515.968L402.687 513.577L400.56 516.344Z" fill="#DBDBDB"/>
<path d="M407.526 522.877L408.542 527.696L411.912 526.717L411.009 522.425L407.526 522.877Z" fill="#DBDBDB"/>
<path d="M407.846 532.422L405.154 536.545L408.222 538.22L410.613 534.549L407.846 532.422Z" fill="#DBDBDB"/>
<path d="M401.313 539.387L396.493 540.404L397.472 543.774L401.765 542.851L401.313 539.387Z" fill="#DBDBDB"/>
<path d="M489.665 574.518L495.652 575.628L512.784 459.601L505.969 458.359L489.665 574.518Z" fill="#D62829"/>
<path d="M437.196 556.124L446.101 478.597L505.969 458.34C505.969 458.34 489.665 575.76 489.665 574.499L437.196 556.124Z" fill="#D62829"/>
<path opacity="0.4" d="M437.196 556.124L446.101 478.597L505.969 458.34C505.969 458.34 489.665 575.76 489.665 574.499L437.196 556.124Z" fill="white"/>
<path d="M292.082 481.741C291.103 475.322 290.576 468.845 290.181 462.369C289.993 459.131 289.917 455.874 289.842 452.636C289.786 449.398 289.729 446.141 289.823 442.903L289.842 442.055L290.67 442.018C302.569 441.378 314.448 440.606 326.346 440.079C338.245 439.495 350.143 438.949 362.041 438.591C350.181 439.664 338.301 440.587 326.422 441.434C314.542 442.357 302.663 443.034 290.783 443.844L291.631 442.94L291.574 452.636L291.687 462.331C291.706 465.569 291.762 468.808 291.857 472.046L292.082 481.741Z" fill="white"/>
<path d="M454.441 479.746C458.15 477.976 461.915 476.338 465.737 474.832C469.54 473.288 473.381 471.82 477.259 470.483C481.137 469.165 485.034 467.866 489.006 466.755C492.96 465.645 496.951 464.609 501.036 463.95L502.034 463.781L501.846 464.741C500.905 469.768 499.926 474.775 498.758 479.764C499.191 474.662 499.813 469.598 500.472 464.534L501.3 465.325C497.346 466.266 493.431 467.377 489.515 468.525C485.599 469.692 481.702 470.916 477.824 472.196L454.441 479.746Z" fill="white"/>
<path opacity="0.1" d="M317.988 436.539L318.985 455.93L319.851 475.321L321.357 514.123L322.525 552.924L322.995 572.334L323.315 591.744L322.299 572.353L321.433 552.961L319.946 514.16L318.778 475.359L318.308 455.949L317.988 436.539Z" fill="black"/>
<path opacity="0.1" d="M312.434 448.23C312.81 449.906 311.813 451.883 309.93 452.447C309.026 452.73 307.953 452.636 307.049 452.127C306.165 451.619 305.506 450.697 305.299 449.68C305.091 448.663 305.336 447.553 305.976 446.743C306.598 445.933 307.558 445.425 308.499 445.331C310.438 445.086 312.133 446.536 312.434 448.23ZM312.434 448.23C312.264 447.383 311.718 446.63 310.984 446.216C310.25 445.802 309.365 445.764 308.65 445.99C307.144 446.479 306.409 448.08 306.692 449.379C306.936 450.697 308.217 451.883 309.798 451.751C310.57 451.694 311.361 451.299 311.869 450.64C312.396 449.981 312.603 449.078 312.434 448.23Z" fill="black"/>
<path opacity="0.1" d="M313.77 471.481C314.147 473.156 313.149 475.133 311.267 475.698C310.363 475.98 309.29 475.886 308.386 475.378C307.501 474.87 306.842 473.947 306.635 472.93C306.428 471.914 306.673 470.803 307.313 469.994C307.934 469.184 308.894 468.676 309.836 468.582C311.775 468.337 313.469 469.786 313.77 471.481ZM313.77 471.481C313.601 470.634 313.055 469.881 312.321 469.466C311.587 469.052 310.702 469.015 309.986 469.24C308.48 469.73 307.746 471.33 308.028 472.629C308.273 473.947 309.553 475.133 311.135 475.001C311.907 474.926 312.697 474.55 313.206 473.891C313.714 473.232 313.921 472.309 313.77 471.481Z" fill="black"/>
<path opacity="0.1" d="M314.618 496.143C314.994 497.819 313.996 499.796 312.114 500.361C311.21 500.643 310.137 500.549 309.233 500.041C308.348 499.532 307.689 498.61 307.482 497.593C307.275 496.577 307.52 495.466 308.16 494.656C308.781 493.847 309.742 493.338 310.683 493.244C312.622 493.018 314.316 494.468 314.618 496.143ZM314.618 496.143C314.448 495.296 313.902 494.543 313.168 494.129C312.434 493.715 311.549 493.677 310.833 493.903C309.327 494.393 308.593 495.993 308.876 497.292C309.12 498.61 310.4 499.796 311.982 499.664C312.754 499.589 313.545 499.212 314.053 498.553C314.561 497.894 314.768 496.991 314.618 496.143Z" fill="black"/>
<path opacity="0.1" d="M315.465 520.825C315.841 522.5 314.844 524.477 312.961 525.042C312.057 525.324 310.984 525.23 310.08 524.722C309.196 524.214 308.537 523.291 308.33 522.274C308.122 521.258 308.367 520.147 308.988 519.337C309.61 518.528 310.57 518.02 311.511 517.925C313.469 517.681 315.164 519.149 315.465 520.825ZM315.465 520.825C315.295 519.978 314.749 519.225 314.015 518.81C313.281 518.396 312.396 518.358 311.681 518.584C310.175 519.074 309.44 520.674 309.723 521.973C309.967 523.291 311.248 524.477 312.829 524.345C313.601 524.289 314.392 523.893 314.9 523.235C315.408 522.576 315.615 521.672 315.465 520.825Z" fill="black"/>
<path opacity="0.1" d="M316.312 545.506C316.689 547.182 315.691 549.158 313.808 549.723C312.904 550.006 311.831 549.911 310.928 549.403C310.043 548.895 309.384 547.972 309.177 546.956C308.97 545.939 309.215 544.828 309.855 544.019C310.476 543.209 311.436 542.701 312.377 542.607C314.316 542.362 316.011 543.831 316.312 545.506ZM316.312 545.506C316.143 544.659 315.597 543.906 314.862 543.492C314.128 543.078 313.243 543.04 312.528 543.266C311.022 543.755 310.288 545.356 310.57 546.655C310.815 547.972 312.095 549.158 313.676 549.027C314.448 548.97 315.239 548.575 315.747 547.916C316.256 547.257 316.463 546.353 316.312 545.506Z" fill="black"/>
<path opacity="0.1" d="M317.159 570.188C317.536 571.863 316.538 573.84 314.655 574.405C313.752 574.687 312.679 574.593 311.775 574.085C310.89 573.576 310.231 572.654 310.024 571.637C309.817 570.621 310.062 569.51 310.683 568.7C311.304 567.891 312.264 567.382 313.206 567.288C315.164 567.044 316.858 568.512 317.159 570.188ZM317.159 570.188C316.99 569.34 316.444 568.587 315.71 568.173C314.975 567.759 314.091 567.721 313.375 567.947C311.869 568.437 311.135 570.037 311.417 571.336C311.662 572.654 312.942 573.84 314.524 573.708C315.295 573.633 316.086 573.256 316.594 572.597C317.103 571.938 317.31 571.035 317.159 570.188Z" fill="black"/>
<path d="M324.782 607.918L236.535 634.659L239.658 644.965L327.904 618.223L324.782 607.918Z" fill="#D62829"/>
<path opacity="0.4" d="M324.782 607.918L236.535 634.659L239.658 644.965L327.904 618.223L324.782 607.918Z" fill="white"/>
<path d="M282.547 617.21L272.284 620.474L277.134 635.725L287.397 632.461L282.547 617.21Z" fill="#D62829"/>
<path d="M238.954 660.084L216.193 561.471L147.458 577.775L181.289 673.864L238.954 660.084Z" fill="#D62829"/>
<path d="M254.204 655.076L238.954 660.084L216.193 561.471L238.126 566.686L254.204 655.076Z" fill="#D62829"/>
<path opacity="0.2" d="M254.204 655.076L238.954 660.084L216.193 561.471L238.126 566.686L254.204 655.076Z" fill="black"/>
<path d="M326.384 624.765C332.841 624.765 338.075 619.531 338.075 613.074C338.075 606.617 332.841 601.383 326.384 601.383C319.927 601.383 314.693 606.617 314.693 613.074C314.693 619.531 319.927 624.765 326.384 624.765Z" fill="#D62829"/>
<path d="M446.764 607.637L443.62 617.936L531.811 644.862L534.955 634.563L446.764 607.637Z" fill="#D62829"/>
<path opacity="0.4" d="M446.764 607.637L443.62 617.936L531.811 644.862L534.955 634.563L446.764 607.637Z" fill="white"/>
<path d="M489.045 616.973L484.161 632.212L494.417 635.499L499.3 620.26L489.045 616.973Z" fill="#D62829"/>
<path d="M532.514 659.989L555.501 561.433L624.199 577.869L590.161 673.902L532.514 659.989Z" fill="#D62829"/>
<path d="M517.284 654.944L532.514 659.989L555.501 561.433L533.55 566.611L517.284 654.944Z" fill="#D62829"/>
<path opacity="0.2" d="M517.284 654.944L532.514 659.989L555.501 561.433L533.55 566.611L517.284 654.944Z" fill="black"/>
<path d="M433.506 612.773C433.487 619.23 438.721 624.483 445.179 624.502C451.636 624.52 456.889 619.287 456.907 612.829C456.926 606.372 451.692 601.119 445.235 601.1C438.778 601.082 433.525 606.315 433.506 612.773Z" fill="#D62829"/>
<path d="M521.802 491.154C522.084 490.891 550.418 464.609 583.759 473.589C617.854 482.796 646.018 534.154 646.282 534.662L655.751 529.541C654.528 527.263 625.159 473.589 586.546 463.178C547.274 452.598 515.683 482.061 514.347 483.323L521.802 491.154Z" fill="#D62829"/>
<path opacity="0.4" d="M521.802 491.154C522.084 490.891 550.418 464.609 583.759 473.589C617.854 482.796 646.018 534.154 646.282 534.662L655.751 529.541C654.528 527.263 625.159 473.589 586.546 463.178C547.274 452.598 515.683 482.061 514.347 483.323L521.802 491.154Z" fill="white"/>
<path d="M633.725 586.378L654.151 575.591C652.193 571.882 649.783 565.5 649.426 559.739C648.974 552.284 651.93 549.648 655.205 547.935C662.36 544.151 666.633 545.657 669.551 547.37C673.637 549.78 677.797 554.731 681.261 561.283L701.688 550.495C696.096 539.915 689.244 532.158 681.299 527.471C673.373 522.802 660.552 518.999 644.437 527.508C631.88 534.135 625.479 546.071 626.401 561.132C627.098 572.993 632.181 583.46 633.725 586.378Z" fill="#D62829"/>
<path d="M526.113 455.177C530.537 452.127 535.074 449.247 539.612 446.385C544.149 443.505 548.761 440.775 553.374 438.026C558.005 435.315 562.636 432.623 567.362 430.044L574.422 426.185C576.812 424.961 579.166 423.681 581.594 422.495C579.392 424.038 577.133 425.488 574.892 426.975L568.096 431.287C563.559 434.148 558.946 436.897 554.334 439.645C549.703 442.356 545.071 445.049 540.346 447.628C535.639 450.226 530.933 452.786 526.113 455.177Z" fill="#263238"/>
<path d="M514.384 499.231C520.729 502.846 526.734 506.912 532.646 511.11C538.538 515.346 544.356 519.695 549.816 524.515C543.471 520.9 537.465 516.834 531.554 512.635C525.661 508.399 519.863 504.051 514.384 499.231Z" fill="#263238"/>
<path d="M524.795 493.809C529.69 495.296 534.51 496.972 539.31 498.685C544.13 500.379 548.874 502.205 553.637 504.032C558.382 505.895 563.126 507.778 567.814 509.774L574.836 512.786C577.151 513.859 579.505 514.857 581.802 515.986C579.354 515.252 576.944 514.424 574.516 513.652L567.305 511.129C562.486 509.435 557.741 507.609 552.978 505.782C548.234 503.919 543.49 502.036 538.802 500.04C534.077 498.045 529.389 496.012 524.795 493.809Z" fill="#263238"/>
<path d="M538.689 459.3C543.377 458.076 548.102 457.06 552.828 456.081C557.553 455.083 562.297 454.217 567.06 453.351C571.823 452.541 576.587 451.732 581.368 451.054L588.541 450.056C590.951 449.793 593.342 449.473 595.752 449.266C593.417 449.887 591.045 450.395 588.692 450.979L581.613 452.485C576.888 453.483 572.144 454.349 567.38 455.215C562.617 456.024 557.854 456.834 553.072 457.512C548.291 458.189 543.509 458.848 538.689 459.3Z" fill="#263238"/>
<path d="M595.093 268.627C590.029 260.908 587.186 252.248 587.186 243.079C587.186 210.698 622.73 184.454 666.558 184.454C710.386 184.454 745.892 210.698 745.892 243.079C745.892 275.461 710.367 301.705 666.558 301.705C645.303 301.705 626.044 295.548 611.811 285.476L584.475 292.423L595.093 268.627Z" fill="white"/>
<path d="M595.093 268.627C590.311 261.51 587.318 253.095 586.998 244.472C586.753 235.85 588.88 227.133 593.304 219.678C597.634 212.166 603.791 205.841 610.757 200.739C617.722 195.618 625.573 191.74 633.781 189.029C641.971 186.299 650.518 184.642 659.14 183.964C667.763 183.324 676.461 183.87 684.989 185.282C687.097 185.715 689.262 185.998 691.352 186.563L697.621 188.257L703.74 190.422C705.773 191.156 707.712 192.154 709.708 193.001C717.521 196.71 724.863 201.586 731.019 207.742C737.176 213.861 742.127 221.354 744.744 229.731C747.361 238.071 747.549 247.24 745.007 255.636C742.541 264.052 737.684 271.62 731.622 277.833C725.541 284.064 718.274 289.016 710.499 292.819C702.723 296.659 694.346 299.182 685.855 300.707C677.345 302.175 668.666 302.797 660.044 302.194C651.421 301.648 642.874 300.067 634.666 297.375C626.477 294.682 618.588 290.917 611.585 285.872L611.943 285.928L584.55 292.668L584.136 292.762L584.305 292.386L595.093 268.627ZM595.093 268.627L584.663 292.517L584.418 292.235L611.698 285.062L611.886 285.006L612.056 285.119C626.138 294.833 643.119 299.897 660.1 300.801C668.61 301.328 677.176 300.632 685.554 299.125C693.913 297.563 702.14 295.097 709.764 291.294C717.389 287.547 724.468 282.671 730.379 276.59C736.272 270.528 740.922 263.205 743.257 255.109C745.685 247.033 745.44 238.279 742.955 230.259C740.47 222.22 735.707 214.972 729.758 208.985C723.79 202.979 716.636 198.197 708.993 194.526C707.035 193.679 705.152 192.7 703.156 191.985L697.151 189.838L690.995 188.163C688.942 187.617 686.815 187.316 684.744 186.883C676.366 185.452 667.8 184.943 659.291 185.489C650.8 186.092 642.366 187.636 634.252 190.271C626.138 192.888 618.362 196.635 611.453 201.624C604.544 206.575 598.444 212.769 594.058 220.092C589.577 227.359 587.355 235.925 587.449 244.472C587.581 253.02 590.424 261.435 595.093 268.627Z" fill="#263238"/>
<path d="M625.723 252.681V257.048H607.97V231.463H625.403V235.831H612.94V241.987H623.709V246.016H612.94V252.681H625.723Z" fill="#263238"/>
<path d="M629.602 257.03V231.463H640.916C642.084 231.463 643.176 231.708 644.173 232.198C645.171 232.687 646.037 233.346 646.753 234.137C647.468 234.946 648.033 235.85 648.447 236.867C648.861 237.883 649.068 238.919 649.068 239.954C649.068 241.611 648.654 243.117 647.826 244.472C646.997 245.828 645.868 246.807 644.456 247.409L650.292 257.03H644.7L639.486 248.464H634.591V257.03H629.602ZM634.591 244.096H640.822C641.274 244.096 641.707 243.983 642.102 243.776C642.498 243.569 642.837 243.268 643.138 242.891C643.42 242.514 643.646 242.081 643.816 241.573C643.985 241.065 644.06 240.519 644.06 239.954C644.06 239.352 643.966 238.806 643.778 238.297C643.59 237.789 643.326 237.356 643.006 236.98C642.686 236.603 642.309 236.321 641.895 236.113C641.481 235.906 641.048 235.812 640.615 235.812H634.591V244.096Z" fill="#263238"/>
<path d="M653.568 257.03V231.463H664.882C666.05 231.463 667.142 231.708 668.139 232.198C669.137 232.687 670.003 233.346 670.719 234.137C671.434 234.946 671.999 235.85 672.413 236.867C672.827 237.883 673.034 238.919 673.034 239.954C673.034 241.611 672.62 243.117 671.792 244.472C670.963 245.828 669.834 246.807 668.422 247.409L674.258 257.03H668.666L663.452 248.464H658.557V257.03H653.568ZM658.538 244.096H664.769C665.221 244.096 665.654 243.983 666.05 243.776C666.445 243.569 666.784 243.268 667.085 242.891C667.367 242.514 667.593 242.081 667.763 241.573C667.932 241.065 668.008 240.519 668.008 239.954C668.008 239.352 667.913 238.806 667.725 238.297C667.537 237.789 667.273 237.356 666.953 236.98C666.633 236.603 666.257 236.321 665.843 236.113C665.428 235.906 664.995 235.812 664.562 235.812H658.538V244.096Z" fill="#263238"/>
<path d="M688.453 257.218C686.57 257.218 684.876 256.86 683.351 256.126C681.826 255.392 680.508 254.413 679.416 253.208C678.324 252.003 677.477 250.61 676.875 249.047C676.272 247.485 675.971 245.884 675.971 244.247C675.971 242.533 676.291 240.914 676.931 239.352C677.571 237.789 678.437 236.415 679.567 235.21C680.678 234.005 682.014 233.045 683.558 232.348C685.102 231.633 686.759 231.275 688.566 231.275C690.411 231.275 692.105 231.652 693.63 232.405C695.155 233.158 696.454 234.156 697.546 235.379C698.619 236.603 699.466 237.996 700.069 239.559C700.671 241.121 700.972 242.703 700.972 244.322C700.972 246.035 700.652 247.654 700.031 249.198C699.41 250.742 698.544 252.116 697.433 253.302C696.322 254.488 695.005 255.448 693.461 256.145C691.917 256.86 690.241 257.218 688.453 257.218ZM681.017 244.247C681.017 245.357 681.186 246.412 681.525 247.447C681.864 248.482 682.353 249.386 682.993 250.177C683.633 250.968 684.405 251.608 685.328 252.078C686.25 252.568 687.305 252.794 688.472 252.794C689.677 252.794 690.731 252.549 691.653 252.059C692.576 251.57 693.367 250.911 693.988 250.102C694.628 249.292 695.099 248.369 695.438 247.353C695.758 246.336 695.927 245.301 695.927 244.228C695.927 243.117 695.758 242.063 695.4 241.027C695.042 239.992 694.553 239.088 693.931 238.297C693.291 237.507 692.519 236.867 691.597 236.415C690.675 235.944 689.639 235.718 688.472 235.718C687.267 235.718 686.194 235.963 685.271 236.452C684.33 236.942 683.558 237.601 682.937 238.392C682.316 239.201 681.845 240.105 681.506 241.121C681.186 242.157 681.017 243.192 681.017 244.247Z" fill="#263238"/>
<path d="M704.757 257.03V231.463H716.071C717.238 231.463 718.33 231.708 719.328 232.198C720.326 232.687 721.192 233.346 721.907 234.137C722.623 234.946 723.188 235.85 723.602 236.867C724.016 237.883 724.223 238.919 724.223 239.954C724.223 241.611 723.809 243.117 722.981 244.472C722.152 245.828 721.023 246.807 719.611 247.409L725.447 257.03H719.855L714.64 248.464H709.746V257.03H704.757ZM709.746 244.096H715.977C716.429 244.096 716.862 243.983 717.257 243.776C717.653 243.569 717.992 243.268 718.293 242.891C718.575 242.514 718.801 242.081 718.97 241.573C719.14 241.065 719.215 240.519 719.215 239.954C719.215 239.352 719.121 238.806 718.933 238.297C718.745 237.789 718.481 237.356 718.161 236.98C717.841 236.603 717.464 236.321 717.05 236.113C716.636 235.906 716.203 235.812 715.77 235.812H709.746V244.096Z" fill="#263238"/>
</svg>
